<svg width="299" height="100" viewBox="0 0 299 100" fill="none" xmlns="http://www.w3.org/2000/svg">
<path d="M15.5185 32.184C15.5185 34.392 16.0145 36.168 17.0065 37.512C17.9985 38.856 19.4705 39.528 21.4225 39.528C22.0625 39.528 22.6545 39.512 23.1985 39.48C23.7425 39.416 24.1905 39.352 24.5425 39.288V26.28C24.0945 25.992 23.5025 25.752 22.7665 25.56C22.0625 25.368 21.3425 25.272 20.6065 25.272C17.2145 25.272 15.5185 27.576 15.5185 32.184ZM31.6945 44.184C31.0545 44.376 30.3185 44.568 29.4865 44.76C28.6545 44.92 27.7745 45.064 26.8465 45.192C25.9505 45.32 25.0225 45.416 24.0625 45.48C23.1345 45.576 22.2385 45.624 21.3745 45.624C19.2945 45.624 17.4385 45.32 15.8065 44.712C14.1745 44.104 12.7985 43.24 11.6785 42.12C10.5585 40.968 9.6945 39.592 9.0865 37.992C8.5105 36.36 8.2225 34.536 8.2225 32.52C8.2225 30.472 8.4785 28.632 8.9905 27C9.5025 25.336 10.2385 23.928 11.1985 22.776C12.1585 21.624 13.3265 20.744 14.7025 20.136C16.1105 19.528 17.7105 19.224 19.5025 19.224C20.4945 19.224 21.3745 19.32 22.1425 19.512C22.9425 19.704 23.7425 19.976 24.5425 20.328V8.904L31.6945 7.752V44.184ZM37.1913 32.568C37.1913 30.328 37.5273 28.376 38.1992 26.712C38.9032 25.016 39.8153 23.608 40.9353 22.488C42.0553 21.368 43.3353 20.52 44.7752 19.944C46.2472 19.368 47.7512 19.08 49.2872 19.08C52.8713 19.08 55.7033 20.184 57.7833 22.392C59.8632 24.568 60.9032 27.784 60.9032 32.04C60.9032 32.456 60.8872 32.92 60.8552 33.432C60.8232 33.912 60.7913 34.344 60.7593 34.728H44.5352C44.6952 36.2 45.3832 37.368 46.5992 38.232C47.8153 39.096 49.4473 39.528 51.4952 39.528C52.8073 39.528 54.0873 39.416 55.3353 39.192C56.6153 38.936 57.6553 38.632 58.4553 38.28L59.4153 44.088C59.0312 44.28 58.5192 44.472 57.8793 44.664C57.2393 44.856 56.5192 45.016 55.7192 45.144C54.9513 45.304 54.1193 45.432 53.2233 45.528C52.3273 45.624 51.4313 45.672 50.5353 45.672C48.2633 45.672 46.2793 45.336 44.5833 44.664C42.9193 43.992 41.5273 43.08 40.4073 41.928C39.3193 40.744 38.5033 39.352 37.9593 37.752C37.4473 36.152 37.1913 34.424 37.1913 32.568ZM53.9913 29.832C53.9592 29.224 53.8472 28.632 53.6553 28.056C53.4952 27.48 53.2232 26.968 52.8392 26.52C52.4873 26.072 52.0233 25.704 51.4473 25.416C50.9032 25.128 50.2152 24.984 49.3832 24.984C48.5832 24.984 47.8952 25.128 47.3193 25.416C46.7433 25.672 46.2633 26.024 45.8792 26.472C45.4952 26.92 45.1913 27.448 44.9673 28.056C44.7753 28.632 44.6313 29.224 44.5352 29.832H53.9913ZM73.2865 45C71.6545 41.8 69.9905 38.056 68.2945 33.768C66.6305 29.48 65.0465 24.808 63.5425 19.752H71.1265C71.4465 21 71.8145 22.36 72.2305 23.832C72.6785 25.272 73.1265 26.744 73.5745 28.248C74.0545 29.72 74.5185 31.16 74.9665 32.568C75.4465 33.976 75.9105 35.256 76.3585 36.408C76.7745 35.256 77.2225 33.976 77.7025 32.568C78.1825 31.16 78.6465 29.72 79.0945 28.248C79.5745 26.744 80.0225 25.272 80.4385 23.832C80.8865 22.36 81.2705 21 81.5905 19.752H88.9825C87.4785 24.808 85.8785 29.48 84.1825 33.768C82.5185 38.056 80.8705 41.8 79.2385 45H73.2865ZM92.8131 45V8.904L99.9651 7.752V19.848C100.445 19.688 101.053 19.544 101.789 19.416C102.557 19.256 103.293 19.176 103.997 19.176C106.045 19.176 107.741 19.464 109.085 20.04C110.461 20.584 111.549 21.368 112.349 22.392C113.181 23.416 113.757 24.632 114.077 26.04C114.429 27.448 114.605 29.016 114.605 30.744V45H107.453V31.608C107.453 29.304 107.149 27.672 106.541 26.712C105.965 25.752 104.877 25.272 103.277 25.272C102.637 25.272 102.029 25.336 101.453 25.464C100.909 25.56 100.413 25.672 99.9651 25.8V45H92.8131ZM144.695 32.328C144.695 34.312 144.407 36.136 143.831 37.8C143.255 39.432 142.423 40.84 141.335 42.024C140.247 43.176 138.935 44.072 137.399 44.712C135.895 45.352 134.199 45.672 132.311 45.672C130.455 45.672 128.759 45.352 127.223 44.712C125.719 44.072 124.423 43.176 123.335 42.024C122.247 40.84 121.399 39.432 120.791 37.8C120.183 36.136 119.879 34.312 119.879 32.328C119.879 30.344 120.183 28.536 120.791 26.904C121.431 25.272 122.295 23.88 123.383 22.728C124.503 21.576 125.815 20.68 127.319 20.04C128.855 19.4 130.519 19.08 132.311 19.08C134.135 19.08 135.799 19.4 137.303 20.04C138.839 20.68 140.151 21.576 141.239 22.728C142.327 23.88 143.175 25.272 143.783 26.904C144.391 28.536 144.695 30.344 144.695 32.328ZM137.399 32.328C137.399 30.12 136.951 28.392 136.055 27.144C135.191 25.864 133.943 25.224 132.311 25.224C130.679 25.224 129.415 25.864 128.519 27.144C127.623 28.392 127.175 30.12 127.175 32.328C127.175 34.536 127.623 36.296 128.519 37.608C129.415 38.888 130.679 39.528 132.311 39.528C133.943 39.528 135.191 38.888 136.055 37.608C136.951 36.296 137.399 34.536 137.399 32.328ZM160.315 45.48C158.235 45.448 156.539 45.224 155.227 44.808C153.947 44.392 152.923 43.816 152.155 43.08C151.419 42.312 150.907 41.4 150.619 40.344C150.363 39.256 150.235 38.04 150.235 36.696V8.904L157.387 7.752V35.256C157.387 35.896 157.435 36.472 157.531 36.984C157.627 37.496 157.803 37.928 158.059 38.28C158.347 38.632 158.747 38.92 159.259 39.144C159.771 39.368 160.459 39.512 161.323 39.576L160.315 45.48ZM172.574 45H165.423V19.752H172.574V45ZM173.246 12.456C173.246 13.768 172.814 14.808 171.951 15.576C171.119 16.312 170.127 16.68 168.974 16.68C167.822 16.68 166.815 16.312 165.951 15.576C165.118 14.808 164.702 13.768 164.702 12.456C164.702 11.144 165.118 10.12 165.951 9.384C166.815 8.616 167.822 8.232 168.974 8.232C170.127 8.232 171.119 8.616 171.951 9.384C172.814 10.12 173.246 11.144 173.246 12.456ZM178.098 32.376C178.098 30.552 178.386 28.84 178.962 27.24C179.57 25.608 180.434 24.2 181.553 23.016C182.673 21.8 184.033 20.84 185.634 20.136C187.234 19.432 189.058 19.08 191.106 19.08C192.45 19.08 193.682 19.208 194.802 19.464C195.922 19.688 197.01 20.024 198.065 20.472L196.578 26.184C195.906 25.928 195.17 25.704 194.37 25.512C193.569 25.32 192.674 25.224 191.682 25.224C189.569 25.224 187.985 25.88 186.93 27.192C185.905 28.504 185.393 30.232 185.393 32.376C185.393 34.648 185.873 36.408 186.833 37.656C187.825 38.904 189.537 39.528 191.969 39.528C192.833 39.528 193.761 39.448 194.753 39.288C195.746 39.128 196.658 38.872 197.49 38.52L198.497 44.376C197.666 44.728 196.626 45.032 195.378 45.288C194.129 45.544 192.753 45.672 191.25 45.672C188.945 45.672 186.961 45.336 185.297 44.664C183.634 43.96 182.258 43.016 181.169 41.832C180.113 40.648 179.329 39.256 178.817 37.656C178.338 36.024 178.098 34.264 178.098 32.376Z" transform="translate(100.5 45)" fill="#A55A2F"/>
<path d="M3.3075 13.464L10.4595 12.312V19.752H19.0515V25.704H10.4595V34.584C10.4595 36.088 10.7155 37.288 11.2275 38.184C11.7715 39.08 12.8435 39.528 14.4435 39.528C15.2115 39.528 15.9955 39.464 16.7955 39.336C17.6275 39.176 18.3795 38.968 19.0515 38.712L20.0595 44.28C19.1955 44.632 18.2355 44.936 17.1795 45.192C16.1235 45.448 14.8275 45.576 13.2915 45.576C11.3395 45.576 9.7235 45.32 8.4435 44.808C7.1635 44.264 6.1395 43.528 5.3715 42.6C4.6035 41.64 4.0595 40.488 3.7395 39.144C3.4515 37.8 3.3075 36.312 3.3075 34.68V13.464ZM24.8756 45V8.904L32.0276 7.752V19.848C32.5076 19.688 33.1156 19.544 33.8516 19.416C34.6196 19.256 35.3556 19.176 36.0596 19.176C38.1076 19.176 39.8036 19.464 41.1476 20.04C42.5236 20.584 43.6116 21.368 44.4116 22.392C45.2436 23.416 45.8196 24.632 46.1396 26.04C46.4916 27.448 46.6676 29.016 46.6676 30.744V45H39.5156V31.608C39.5156 29.304 39.2116 27.672 38.6036 26.712C38.0276 25.752 36.9396 25.272 35.3396 25.272C34.6996 25.272 34.0916 25.336 33.5156 25.464C32.9716 25.56 32.4756 25.672 32.0276 25.8V45H24.8756ZM51.9413 32.568C51.9413 30.328 52.2773 28.376 52.9492 26.712C53.6532 25.016 54.5653 23.608 55.6853 22.488C56.8053 21.368 58.0853 20.52 59.5252 19.944C60.9972 19.368 62.5012 19.08 64.0372 19.08C67.6213 19.08 70.4533 20.184 72.5333 22.392C74.6132 24.568 75.6532 27.784 75.6532 32.04C75.6532 32.456 75.6372 32.92 75.6052 33.432C75.5732 33.912 75.5413 34.344 75.5093 34.728H59.2852C59.4452 36.2 60.1332 37.368 61.3492 38.232C62.5653 39.096 64.1973 39.528 66.2452 39.528C67.5573 39.528 68.8373 39.416 70.0853 39.192C71.3653 38.936 72.4053 38.632 73.2053 38.28L74.1653 44.088C73.7812 44.28 73.2692 44.472 72.6293 44.664C71.9893 44.856 71.2692 45.016 70.4692 45.144C69.7013 45.304 68.8693 45.432 67.9733 45.528C67.0773 45.624 66.1813 45.672 65.2853 45.672C63.0133 45.672 61.0293 45.336 59.3333 44.664C57.6693 43.992 56.2773 43.08 55.1573 41.928C54.0693 40.744 53.2533 39.352 52.7093 37.752C52.1973 36.152 51.9413 34.424 51.9413 32.568ZM68.7413 29.832C68.7092 29.224 68.5972 28.632 68.4053 28.056C68.2452 27.48 67.9732 26.968 67.5892 26.52C67.2373 26.072 66.7733 25.704 66.1973 25.416C65.6532 25.128 64.9652 24.984 64.1332 24.984C63.3332 24.984 62.6452 25.128 62.0693 25.416C61.4933 25.672 61.0133 26.024 60.6292 26.472C60.2452 26.92 59.9413 27.448 59.7173 28.056C59.5253 28.632 59.3813 29.224 59.2852 29.832H68.7413Z" transform="translate(100)" fill="#A55A2F"/>
<path d="M0 0H18" transform="translate(55 65)" stroke="#A55A2F" stroke-width="7"/>
<path d="M0 0L15 14L0 29" transform="translate(35 36)" stroke="#A55A2F" stroke-width="7"/>
<circle cx="50" cy="50" r="43.5" stroke="#973737" stroke-width="13"/>
<rect width="7.2" height="72" transform="translate(125 12)" fill="#A55A2F"/>
</svg>
